<svg xmlns="http://www.w3.org/2000/svg" viewBox="0 0 2241.38 2113.36"><defs><style>.cls-1{fill:#2d5b98;}.cls-2{fill:#5896fa;}.cls-3{fill:#0e0e0e;}.cls-4{fill:#ffca59;}.cls-5{fill:#ed5a24;}.cls-18,.cls-6{fill:none;}.cls-6{stroke:#2e77e6;stroke-width:8.73px;stroke-dasharray:13.1 13.1;}.cls-14,.cls-18,.cls-6{stroke-miterlimit:10;}.cls-14,.cls-7{fill:#fff;}.cls-8{fill:#80b2ff;}.cls-9{fill:#005cea;}.cls-10{fill:#1251b3;}.cls-11{fill:#d9ffff;}.cls-12{fill:#296acc;}.cls-13{fill:#2e77e6;}.cls-14{stroke:#5896fa;stroke-width:6.34px;}.cls-15{fill:#d1f5ff;}.cls-16{fill:#3383ff;}.cls-17{fill:#aae0ff;}.cls-18{stroke:#fff;stroke-width:4.23px;}.cls-19{fill:#ea7b00;}.cls-20{fill:#982c20;}.cls-21{fill:#f2b066;}.cls-22{fill:#007880;}.cls-23{fill:#005459;}.cls-24{fill:#b15626;}.cls-25{fill:#f7a594;}.cls-26{fill:#99c1ff;}.cls-27{fill:#f4856d;}</style></defs><title>Data_security_05 [Converted]</title><g id="shadow"><path id="shadow-2" data-name="shadow" class="cls-1" d="M-2332.38,1926H-115.47a12.24,12.24,0,0,0,12.24-12.24h0a12.24,12.24,0,0,0-12.24-12.24H-2332.38a12.24,12.24,0,0,0-12.24,12.24h0A12.24,12.24,0,0,0-2332.38,1926Z" transform="translate(2344.62 187.32)"/><g id="plant"><path class="cls-2" d="M485.75,1699.14H733.5a0,0,0,0,1,0,0V1868a123.88,123.88,0,0,1-123.88,123.88h0A123.88,123.88,0,0,1,485.75,1868V1699.14a0,0,0,0,1,0,0Z"/><rect class="cls-3" x="472.02" y="1826.77" width="13.73" height="262.12"/><rect class="cls-3" x="733.5" y="1826.77" width="13.73" height="262.12"/><rect class="cls-3" x="628.43" y="1826.77" width="13.73" height="262.12"/><rect class="cls-3" x="472.02" y="1991.89" width="262.12" height="13.73"/><path class="cls-4" d="M-1542.07,1232.83c15,21.53-15.14,40.09-19.83,69.94s29.51,46.64-6.75,85.72c-22.34,24.07-41.19-7.9-59.34,29s-3.85,43.11-24.26,56.38c-35.57,23.14-90-28-71.69-64.85s55.33-33.55,38.2-63.87-23.5-43.38,6-59c36.56-19.28,68.77-1.57,71.71-29.78S-1561.84,1204.34-1542.07,1232.83Z" transform="translate(2344.62 187.32)"/><path class="cls-3" d="M-1698.35,1510.13l-6.15-1.22c28.82-145.69,124.38-247.71,125.34-248.72l4.55,4.32C-1575.56,1265.51-1669.89,1366.28-1698.35,1510.13Z" transform="translate(2344.62 187.32)"/><path class="cls-5" d="M-2021.18,1179c-15.46,31.5,28.1,50,40.3,88.57s-32.73,52.17,23.11,96.6c34.4,27.37,41.6,10.26,54.24,71.47,11.13,53.89,52.08,2.61,82.7,34.24,39.51,40.81,101.25-48.76,69.62-93.84s-68.54-33.43-52-77-3.19-76.39-45.42-91.06c-52.25-18.17-71.05,25.69-80.61-11S-2000.74,1137.33-2021.18,1179Z" transform="translate(2344.62 187.32)"/><path class="cls-3" d="M-1758.61,1514.53c-66.63-184.73-211.69-299-213.14-300.14l5.15-6.63c1.48,1.14,148.44,116.93,215.89,303.92Z" transform="translate(2344.62 187.32)"/></g></g><g id="system"><circle class="cls-6" cx="767.55" cy="660.64" r="529.81"/><path class="cls-7" d="M-1442.92,438.54a93.55,93.55,0,0,0,1-12.61,93.37,93.37,0,0,0-93.38-93.37,93.39,93.39,0,0,0-86,57.05,65,65,0,0,0-43.33-16.55A65.24,65.24,0,0,0-1730,438.3h-12.17a63.19,63.19,0,0,0-63,63h0a63.19,63.19,0,0,0,63,63h294.57a63.19,63.19,0,0,0,63-63h0A63.17,63.17,0,0,0-1442.92,438.54Z" transform="translate(2344.62 187.32)"/><rect class="cls-2" x="541.21" y="932.25" width="442.46" height="378.94" rx="24.03"/><path class="cls-7" d="M-1448.22,973.73H-1715a15.91,15.91,0,0,1-15.86-15.87h0A15.91,15.91,0,0,1-1715,942h266.74a15.91,15.91,0,0,1,15.87,15.87h0A15.91,15.91,0,0,1-1448.22,973.73Z" transform="translate(2344.62 187.32)"/><path class="cls-7" d="M-1448.22,1024.84H-1715a15.91,15.91,0,0,1-15.86-15.87h0A15.91,15.91,0,0,1-1715,993.1h266.74a15.91,15.91,0,0,1,15.87,15.87h0A15.91,15.91,0,0,1-1448.22,1024.84Z" transform="translate(2344.62 187.32)"/><path class="cls-8" d="M-1665.15,1010.38a5.58,5.58,0,0,1-5.59,5.58,5.58,5.58,0,0,1-5.58-5.58,5.58,5.58,0,0,1,5.58-5.59A5.59,5.59,0,0,1-1665.15,1010.38Z" transform="translate(2344.62 187.32)"/><path class="cls-8" d="M-1646,1010.38a5.58,5.58,0,0,1-5.59,5.58,5.58,5.58,0,0,1-5.59-5.58,5.59,5.59,0,0,1,5.59-5.59A5.59,5.59,0,0,1-1646,1010.38Z" transform="translate(2344.62 187.32)"/><path class="cls-8" d="M-1626.84,1010.38a5.58,5.58,0,0,1-5.58,5.58,5.58,5.58,0,0,1-5.59-5.58,5.59,5.59,0,0,1,5.59-5.59A5.58,5.58,0,0,1-1626.84,1010.38Z" transform="translate(2344.62 187.32)"/><path class="cls-8" d="M-1607.68,1010.38a5.58,5.58,0,0,1-5.59,5.58,5.59,5.59,0,0,1-5.59-5.58,5.59,5.59,0,0,1,5.59-5.59A5.59,5.59,0,0,1-1607.68,1010.38Z" transform="translate(2344.62 187.32)"/><path class="cls-8" d="M-1588.52,1010.38a5.59,5.59,0,0,1-5.59,5.58,5.58,5.58,0,0,1-5.59-5.58,5.59,5.59,0,0,1,5.59-5.59A5.59,5.59,0,0,1-1588.52,1010.38Z" transform="translate(2344.62 187.32)"/><path class="cls-8" d="M-1569.37,1010.38A5.58,5.58,0,0,1-1575,1016a5.58,5.58,0,0,1-5.58-5.58,5.58,5.58,0,0,1,5.58-5.59A5.59,5.59,0,0,1-1569.37,1010.38Z" transform="translate(2344.62 187.32)"/><path class="cls-8" d="M-1550.21,1010.38a5.58,5.58,0,0,1-5.59,5.58,5.59,5.59,0,0,1-5.59-5.58,5.59,5.59,0,0,1,5.59-5.59A5.59,5.59,0,0,1-1550.21,1010.38Z" transform="translate(2344.62 187.32)"/><path class="cls-8" d="M-1531.06,1010.38a5.58,5.58,0,0,1-5.58,5.58,5.58,5.58,0,0,1-5.59-5.58,5.59,5.59,0,0,1,5.59-5.59A5.58,5.58,0,0,1-1531.06,1010.38Z" transform="translate(2344.62 187.32)"/><path class="cls-8" d="M-1511.9,1010.38a5.58,5.58,0,0,1-5.59,5.58,5.58,5.58,0,0,1-5.58-5.58,5.58,5.58,0,0,1,5.58-5.59A5.59,5.59,0,0,1-1511.9,1010.38Z" transform="translate(2344.62 187.32)"/><circle class="cls-7" cx="763.12" cy="1023.59" r="61.31"/><path class="cls-9" d="M-1581.41,833.8a19.38,19.38,0,0,0,15-7.37,18.87,18.87,0,0,0,4.15-12,19.33,19.33,0,0,0-19.19-19.35,19.36,19.36,0,0,0-19.34,19.35,18.86,18.86,0,0,0,4.14,12A19.45,19.45,0,0,0-1581.41,833.8Z" transform="translate(2344.62 187.32)"/><path class="cls-9" d="M-1547.43,868.26c0,12.21-68.16,12.21-68.16,0l0-14.22c2.69-19.45,62.59-20.26,68.15,0Z" transform="translate(2344.62 187.32)"/><path class="cls-2" d="M-1701.73,1006v-.85A6.25,6.25,0,0,0-1708,999a6.25,6.25,0,0,0-6.24,6.24v.85h-1v11.26c0,1.94,14.42,1.94,14.42,0V1006Zm-10.26-.85a3.86,3.86,0,0,1,4-4.12,3.83,3.83,0,0,1,4.06,4.12v.85H-1712Zm5.08,6.52V1015a1,1,0,0,1-1.08,1,1,1,0,0,1-1-1v-3.25a1.87,1.87,0,0,1-1-1.66,2,2,0,0,1,2-2,2,2,0,0,1,2,2A2,2,0,0,1-1706.91,1011.71Z" transform="translate(2344.62 187.32)"/><path class="cls-2" d="M-1708,956.71a4.1,4.1,0,0,0,3.18-1.56,4,4,0,0,0,.87-2.53,4.08,4.08,0,0,0-4-4.08,4.09,4.09,0,0,0-4.08,4.08,4,4,0,0,0,.88,2.53A4.09,4.09,0,0,0-1708,956.71Z" transform="translate(2344.62 187.32)"/><path class="cls-2" d="M-1700.78,964c0,2.57-14.46,2.57-14.46,0l.08-3c.57-4.11,13.21-4.28,14.38,0Z" transform="translate(2344.62 187.32)"/><path class="cls-8" d="M-1614.53,962.51H-1673a4.67,4.67,0,0,1-4.66-4.65h0a4.68,4.68,0,0,1,4.66-4.66h58.45a4.67,4.67,0,0,1,4.66,4.66h0A4.66,4.66,0,0,1-1614.53,962.51Z" transform="translate(2344.62 187.32)"/><path class="cls-8" d="M-1537.43,962.51h-58.45a4.66,4.66,0,0,1-4.66-4.65h0a4.67,4.67,0,0,1,4.66-4.66h58.45a4.67,4.67,0,0,1,4.65,4.66h0A4.66,4.66,0,0,1-1537.43,962.51Z" transform="translate(2344.62 187.32)"/><rect class="cls-10" x="716.01" y="1234.49" width="80.16" height="27.19" rx="13.6"/><path class="cls-11" d="M-2255.35,520.8h0v0Z" transform="translate(2344.62 187.32)"/><path class="cls-11" d="M-2255.35,520.8h0v0Z" transform="translate(2344.62 187.32)"/><path class="cls-11" d="M-1994.62,522s0-.6,0-.68,0,.24,0,.68Z" transform="translate(2344.62 187.32)"/><path class="cls-11" d="M-1994.62,522s0-.6,0-.68,0,.24,0,.68Z" transform="translate(2344.62 187.32)"/><path class="cls-7" d="M-2124.45,450.36c-30.38,32.55-78.87,59.22-130.75,70.59,0,3.46-.1,22.66-.49,111.14-.53,118,111.8,175.72,129.24,184.57,16.9-7.78,130.65-65.37,131.18-183.4.4-88.49.48-107.69.5-111.15C-2046.55,510.28-2094.36,483.18-2124.45,450.36Z" transform="translate(2344.62 187.32)"/><path class="cls-12" d="M-2124.76,471.69c-29.75,27.3-71,48.75-116.3,60.44l-.45,100c-.2,45.76,18,87.16,54,123.05A258.25,258.25,0,0,0-2126.23,800c.55-.27,1.14-.58,1.73-.89V471.93Z" transform="translate(2344.62 187.32)"/><path class="cls-13" d="M-2124.5,471.93V799.08a258.64,258.64,0,0,0,59.92-43.34c36.37-35.56,54.92-76.8,55.13-122.56l.45-100C-2054.1,521.11-2095,499.37-2124.5,471.93Z" transform="translate(2344.62 187.32)"/><path class="cls-7" d="M-2177.17,616.07v77.48c0,8.63,105.34,8.63,105.34,0V616.07Zm58,41.15v22a5.35,5.35,0,0,1-5.31,5.35,5.36,5.36,0,0,1-5.35-5.35v-22a13,13,0,0,1-7.68-11.85,13,13,0,0,1,13-13,13,13,0,0,1,13,13A13,13,0,0,1-2119.17,657.22Z" transform="translate(2344.62 187.32)"/><path class="cls-7" d="M-2081,610.55h-10.67v-5.21a32.82,32.82,0,0,0-32.78-32.79,32.83,32.83,0,0,0-32.78,32.79v5.21h-10.66v-5.21a43.5,43.5,0,0,1,43.44-43.45A43.5,43.5,0,0,1-2081,605.34Z" transform="translate(2344.62 187.32)"/><rect class="cls-12" x="809.56" width="190.28" height="237.51"/><rect class="cls-14" x="834.24" y="24.52" width="190.28" height="237.51"/><rect class="cls-14" x="865.57" y="48.61" width="190.28" height="237.51"/><rect class="cls-2" x="888.37" y="73.13" width="190.28" height="237.51"/><rect class="cls-9" x="950.62" y="112.12" width="98.42" height="15.45"/><rect class="cls-9" x="921.52" y="148.42" width="127.53" height="15.45"/><rect class="cls-9" x="921.52" y="184.71" width="127.53" height="15.45"/><rect class="cls-9" x="921.52" y="221" width="127.53" height="15.45"/><rect class="cls-9" x="921.52" y="257.29" width="127.53" height="15.45"/><circle class="cls-7" cx="-1952.49" cy="71.19" r="67.2" transform="translate(758.75 -1660.56) rotate(-77.1)"/><path class="cls-9" d="M-1846.46,135.1A123.28,123.28,0,0,0-1830,89.27l5,.74,9.88,1.45h.13a137.91,137.91,0,0,0-2.6-53.69l-14.7,3.64a123.36,123.36,0,0,0-20.81-44l12.19-9.06a137.51,137.51,0,0,0-39.79-36.18l-7.86,13a123.19,123.19,0,0,0-45.82-16.47l2.19-15a139,139,0,0,0-53.69,2.6l3.64,14.71a123.25,123.25,0,0,0-44,20.8l-9.06-12.19a137.55,137.55,0,0,0-36.18,39.8l13,7.85a122.89,122.89,0,0,0-16.47,45.83l-10.63-1.57-4.34-.6-.05,0a139,139,0,0,0,2.59,53.69l14.71-3.64A123.8,123.8,0,0,0-2051.79,145l-12.19,9.06a137.36,137.36,0,0,0,39.75,36.14l7.85-13a123.59,123.59,0,0,0,45.88,16.5l-1.72,11.67-.48,3.35a138.64,138.64,0,0,0,53.65-2.63l-3.64-14.71a124.57,124.57,0,0,0,44.1-20.82l9.06,12.19A138.14,138.14,0,0,0-1833.44,143Zm-140.71-6.36A67.19,67.19,0,0,1-2010,36.47a67.17,67.17,0,0,1,92.25-22.8,67.16,67.16,0,0,1,22.83,92.19A67.17,67.17,0,0,1-1987.17,128.74Z" transform="translate(2344.62 187.32)"/><path class="cls-10" d="M-2098,126.19A65,65,0,0,0-2116,108l1.48-2.22,2.93-4.37,0-.06a72.8,72.8,0,0,0-26.12-10.9l-1.59,7.82a64.9,64.9,0,0,0-25.64,0l-1.55-7.85a72.35,72.35,0,0,0-26.19,10.75l4.41,6.68a64.78,64.78,0,0,0-18.18,18.07l-6.65-4.44a73.28,73.28,0,0,0-10.9,26.12l7.82,1.59a64.9,64.9,0,0,0-.06,25.64l-7.84,1.56a72.35,72.35,0,0,0,10.75,26.19l6.68-4.42a64.82,64.82,0,0,0,18.07,18.19l-3.15,4.7-1.26,1.93,0,0a73.18,73.18,0,0,0,26.12,10.89l1.59-7.81a65.19,65.19,0,0,0,25.66,0l1.56,7.84a72.14,72.14,0,0,0,26.17-10.74l-4.42-6.67a64.83,64.83,0,0,0,18.21-18.09l5.16,3.46,1.49,1a73,73,0,0,0,10.87-26.11l-7.81-1.59a65.85,65.85,0,0,0,.06-25.68l7.84-1.55a72.69,72.69,0,0,0-10.76-26.15Zm-34.82,65.47a35.37,35.37,0,0,1-49.05-10,35.37,35.37,0,0,1,10-49,35.36,35.36,0,0,1,49,10A35.37,35.37,0,0,1-2132.79,191.66Z" transform="translate(2344.62 187.32)"/><rect class="cls-9" x="1176.16" y="344.92" width="175.83" height="105.16" rx="6.23"/><rect class="cls-2" x="1176.16" y="364.78" width="175.83" height="18.15"/><path class="cls-15" d="M-1128.18,242.58H-1154a3,3,0,0,0-3,3h0a3,3,0,0,0,3,3h25.85a3,3,0,0,0,3-3h0A3,3,0,0,0-1128.18,242.58Z" transform="translate(2344.62 187.32)"/><path class="cls-15" d="M-1088.42,242.58h-25.85a3,3,0,0,0-3,3h0a3,3,0,0,0,3,3h25.85a3,3,0,0,0,3-3h0A3,3,0,0,0-1088.42,242.58Z" transform="translate(2344.62 187.32)"/><path class="cls-15" d="M-1048.66,242.58h-25.86a3,3,0,0,0-3,3h0a3,3,0,0,0,3,3h25.86a3,3,0,0,0,3-3h0A3,3,0,0,0-1048.66,242.58Z" transform="translate(2344.62 187.32)"/><path class="cls-15" d="M-1008.91,242.58h-25.85a3,3,0,0,0-3,3h0a3,3,0,0,0,3,3h25.85a3,3,0,0,0,3-3h0A3,3,0,0,0-1008.91,242.58Z" transform="translate(2344.62 187.32)"/><path class="cls-15" d="M-1155.22,162.93h0a3.29,3.29,0,0,0-3.29,3.29v1.15a3.29,3.29,0,0,0,3.29,3.29h0a3.28,3.28,0,0,0,3.28-3.29v-1.15A3.28,3.28,0,0,0-1155.22,162.93Z" transform="translate(2344.62 187.32)"/><path class="cls-15" d="M-1148.15,166.79h0a3.86,3.86,0,0,0,3.86,3.86h13.69a3.86,3.86,0,0,0,3.86-3.87h0a3.86,3.86,0,0,0-3.86-3.86h-13.69A3.86,3.86,0,0,0-1148.15,166.79Z" transform="translate(2344.62 187.32)"/><rect class="cls-2" x="1189.54" y="392.69" width="27.93" height="25.5" rx="5.13"/><path class="cls-10" d="M-1063.56,530.61v-12a9.88,9.88,0,0,0-9.87-9.88h-105.14a9.88,9.88,0,0,0-9.87,9.88V730.93h272V530.61Z" transform="translate(2344.62 187.32)"/><polygon class="cls-7" points="1439.43 725.23 1172.76 725.23 1156.17 918.25 1426.8 918.25 1439.43 725.23"/><path class="cls-16" d="M-916.49,730.93h-272l28.85-190.62a11.41,11.41,0,0,1,11.28-9.7h248.88a11.4,11.4,0,0,1,11.28,13.11Z" transform="translate(2344.62 187.32)"/><circle class="cls-9" cx="-888.02" cy="537.91" r="62.31" transform="translate(1704.16 -283.05) rotate(-45)"/><path class="cls-7" d="M-888,602.5a64.67,64.67,0,0,1-64.6-64.6A64.66,64.66,0,0,1-888,473.32a64.66,64.66,0,0,1,64.6,64.58A64.67,64.67,0,0,1-888,602.5Zm0-124.63a60.09,60.09,0,0,0-60,60,60.09,60.09,0,0,0,60,60,60.09,60.09,0,0,0,60-60A60.09,60.09,0,0,0-888,477.87Z" transform="translate(2344.62 187.32)"/><path class="cls-7" d="M-918,526.63v44.12c0,4.92,60,4.92,60,0V526.63Zm33,23.43v12.51a3.06,3.06,0,0,1-3,3,3.06,3.06,0,0,1-3-3V550a7.41,7.41,0,0,1-4.38-6.74,7.41,7.41,0,0,1,7.43-7.4,7.38,7.38,0,0,1,7.39,7.4A7.38,7.38,0,0,1-885,550.06Z" transform="translate(2344.62 187.32)"/><path class="cls-7" d="M-863.28,523.49h-6.07v-3A18.68,18.68,0,0,0-888,501.85a18.68,18.68,0,0,0-18.66,18.67v3h-6.08v-3A24.76,24.76,0,0,1-888,495.78a24.76,24.76,0,0,1,24.74,24.74Z" transform="translate(2344.62 187.32)"/><circle class="cls-17" cx="1240.22" cy="203.75" r="23.86"/><circle class="cls-17" cx="-1730.82" cy="105.44" r="23.86" transform="translate(803 -1430.91) rotate(-80.25)"/><circle class="cls-7" cx="1407.51" cy="610.39" r="12.48"/><circle class="cls-17" cx="-2243.22" cy="446.47" r="12.48" transform="translate(179.39 -1652.09) rotate(-76.79)"/><circle class="cls-17" cx="-2047.98" cy="901.27" r="23.86" transform="translate(1749.84 -612.78) rotate(-25.74)"/><path class="cls-17" d="M-1665.16-131.38h0a4.14,4.14,0,0,1-4.14-4.13v-44.25a4.14,4.14,0,0,1,4.14-4.14h0a4.13,4.13,0,0,1,4.13,4.14v44.25A4.13,4.13,0,0,1-1665.16-131.38Z" transform="translate(2344.62 187.32)"/><path class="cls-17" d="M-1691.42-157.64h0a4.13,4.13,0,0,1,4.13-4.13H-1643a4.13,4.13,0,0,1,4.14,4.13h0a4.14,4.14,0,0,1-4.14,4.14h-44.25A4.13,4.13,0,0,1-1691.42-157.64Z" transform="translate(2344.62 187.32)"/><path class="cls-7" d="M-1194.71,436.85h0a4.14,4.14,0,0,1-4.14-4.14V388.46a4.13,4.13,0,0,1,4.14-4.13h0a4.13,4.13,0,0,1,4.13,4.13v44.25A4.13,4.13,0,0,1-1194.71,436.85Z" transform="translate(2344.62 187.32)"/><path class="cls-7" d="M-1221,410.59h0a4.13,4.13,0,0,1,4.13-4.14h44.25a4.13,4.13,0,0,1,4.13,4.14h0a4.13,4.13,0,0,1-4.13,4.13h-44.25A4.13,4.13,0,0,1-1221,410.59Z" transform="translate(2344.62 187.32)"/><path class="cls-7" d="M-1239.71,1019.71h0a4.14,4.14,0,0,1-4.13-4.14V971.32a4.13,4.13,0,0,1,4.13-4.13h0a4.13,4.13,0,0,1,4.14,4.13v44.25A4.14,4.14,0,0,1-1239.71,1019.71Z" transform="translate(2344.62 187.32)"/><path class="cls-7" d="M-1266,993.45h0a4.14,4.14,0,0,1,4.14-4.14h44.25a4.13,4.13,0,0,1,4.13,4.14h0a4.13,4.13,0,0,1-4.13,4.13h-44.25A4.13,4.13,0,0,1-1266,993.45Z" transform="translate(2344.62 187.32)"/><circle class="cls-18" cx="736.59" cy="876.72" r="13.23"/></g><g id="male"><polygon class="cls-3" points="1061.78 2088.75 1010 2088.75 1004.65 1976.17 1067.13 1976.17 1061.78 2088.75"/><polygon class="cls-3" points="1961.65 2088.75 1909.88 2088.75 1904.52 1976.17 1967.01 1976.17 1961.65 2088.75"/><path class="cls-19" d="M-428.1,1593.45q-8.56,26.55-18.74,54.51h-859.55s-110.93-451.51,0-534.08a72.48,72.48,0,0,1,10.21-6.22c149.4-76.77,748.4-94.8,870,4,.93.74,1.79,1.5,2.62,2.26C-378.74,1155-339.78,1319.21-428.1,1593.45Z" transform="translate(2344.62 187.32)"/><path class="cls-20" d="M-982.32,1648H-1306.2l31.59-316.45C-1218.14,1356-1067.78,1485.4-982.32,1648Z" transform="translate(2344.62 187.32)"/><path class="cls-20" d="M-428.1,1593.45q-8.56,26.55-18.74,54.51H-759c53.69-99.57,183.87-250.39,310.29-319.82Z" transform="translate(2344.62 187.32)"/><path class="cls-19" d="M-320.4,1327.08H-439.57a39.94,39.94,0,0,0-39.59,34.7l-38,287.38h-696.48l-38-287.38a39.94,39.94,0,0,0-39.59-34.7H-1410.4a39.94,39.94,0,0,0-39.32,47l66.17,478.58H-347.24L-281.08,1374A39.94,39.94,0,0,0-320.4,1327.08Z" transform="translate(2344.62 187.32)"/><path class="cls-21" d="M-524.11,1492.19C-468,1511-479,1629.7-524.11,1648h-680.32c-50.81-13.12-55.1-170.18,18.17-158.37C-737.81,1573.91-716.09,1439.4-524.11,1492.19Z" transform="translate(2344.62 187.32)"/><path class="cls-22" d="M-1042.64,1371.83a631.36,631.36,0,0,0,4.74,84.8h319L-700,1145.15c-19-113.78-70.82-141.35-152.93-141.35-73.48,0-122.42,59.94-152.16,140.18C-1030.81,1213.31-1042.18,1297.77-1042.64,1371.83Z" transform="translate(2344.62 187.32)"/><path class="cls-23" d="M-1042.64,1377.85l115.44-6.95c-64.09-21-69.19-119.34-4-180.55L-1005.1,1144C-1030.81,1213.31-1042.18,1303.78-1042.64,1377.85Z" transform="translate(2344.62 187.32)"/><polygon class="cls-3" points="1280 1708.32 1718.28 1708.32 1718.28 1559.17 1323.48 1559.17 1280 1708.32"/><path class="cls-3" d="M-570.34,1473.67l-117.72,427.75h-91.8c29.06-182,22.56-300.36,49.89-451.51C-706,1325.84-541.8,1358.68-570.34,1473.67Z" transform="translate(2344.62 187.32)"/><path class="cls-24" d="M-721,1901.42c0-.28,0-.56,0-.84a57.42,57.42,0,0,1,57.42-57.42,57.41,57.41,0,0,1,57.41,57.42c0,.28,0,.56,0,.84Z" transform="translate(2344.62 187.32)"/><path class="cls-24" d="M-652.57,1844.23l-20.87-6.38c-13.77-27.1-72.53-23.75-64.34,9.24-23.06,3.43-35.18-8-35.18-8l-6.9,62.38h124.48Z" transform="translate(2344.62 187.32)"/><path class="cls-3" d="M-1087.26,1473.67l117.73,427.75h91.79c-29.06-182-22.55-300.36-49.89-451.51C-951.6,1325.84-1115.8,1358.68-1087.26,1473.67Z" transform="translate(2344.62 187.32)"/><path class="cls-24" d="M-936.56,1901.42c0-.28,0-.56,0-.84A57.42,57.42,0,0,0-994,1843.16a57.42,57.42,0,0,0-57.42,57.42c0,.28,0,.56,0,.84Z" transform="translate(2344.62 187.32)"/><path class="cls-24" d="M-1005,1844.23l20.87-6.38c13.78-27.1,72.53-23.75,64.35,9.24,23,3.43,35.18-8,35.18-8l6.89,62.38h-124.48Z" transform="translate(2344.62 187.32)"/><path class="cls-22" d="M-902.1,1013.81c43.06,26.13,49.19,103.72,27.12,134.63L-997.83,1240l125.08,64.41-20.32,66.53s-130.56-10.62-194.46-76.18C-1148.89,1231.79-999.3,1046.91-902.1,1013.81Z" transform="translate(2344.62 187.32)"/><path class="cls-22" d="M-814.76,1131.51c-36.82-46.25-11.39-117.7,35.55-115.6,152.88,53.82,200.07,203.25,151.64,270.33-41.49,57.47-224,79.6-224,79.6v-62.92l126.81-27.4S-790.16,1174.21-814.76,1131.51Z" transform="translate(2344.62 187.32)"/><path class="cls-25" d="M-948.72,1349.88c-2.37-21.07,10-47.42,41.67-53.17,55.39-10.06,75.44,20.33,80.68,42,1.36,5.66-3.79,11.65-8.54,11.12s-8.1-3.21-8.92-7.52c-1-5.19-3.73-11.61-9.67-15,5.73,11.22,3.34,22.48-12.26,22.48Z" transform="translate(2344.62 187.32)"/><path class="cls-26" d="M-823.66,1349.83l43.59-218.56h9.24L-818,1371.84H-948.63l-14.27-22Z" transform="translate(2344.62 187.32)"/><polygon class="cls-7" points="1573.78 1318.59 1898.13 1318.59 1850.16 1559.17 1526.61 1559.17 1573.78 1318.59"/><path class="cls-25" d="M-865.4,1029.48c0,24.87,74.55,41.36,98.92,15.22a27.57,27.57,0,0,0,7.2-14.75l14-63-89-33.57-2.65,8.23Z" transform="translate(2344.62 187.32)"/><path class="cls-27" d="M-759.28,1030l14-63-84.23-22.68C-851.28,1009.18-773.47,1061-759.28,1030Z" transform="translate(2344.62 187.32)"/><path class="cls-25" d="M-840.86,909.19c-4.69,61.91,44.24,116.43,85.29,119.2s97.57-43.09,102.26-105-33.5-115.27-85.29-119.2S-836.17,847.28-840.86,909.19Z" transform="translate(2344.62 187.32)"/><path class="cls-3" d="M-772.22,808.88c56.76-36,88-2.14,116.28,33.72,19.83,25.16,33.88,43.24,58.57,47C-644.86,949.52-739.83,910-769.75,850c-3,34.16-43.22,62.47-71.11,59.2C-849.89,871.17-823.56,794.31-772.22,808.88Z" transform="translate(2344.62 187.32)"/><circle class="cls-25" cx="-830.03" cy="910.01" r="24.71" transform="translate(2188.13 66.12) rotate(-9.22)"/></g></svg>